<svg width="1918" height="1981" viewBox="0 0 1918 1981" fill="none" xmlns="http://www.w3.org/2000/svg">
<path d="M1918 1909.24L1918 10.8354C1918 10.8354 1679.62 -90.1445 971.619 324.435C263.619 739.014 0.00034249 196.89 0.00034249 196.89L0.000866097 1733.89C0.000866097 1733.89 94.0486 1013 971.619 1607.13C1849.19 2201.26 1918 1909.24 1918 1909.24Z" fill="url(#paint0_linear_606_10)" fill-opacity="0.77"/>
<path d="M1918 1706.99L1918 120.058C1918 120.058 1679.62 35.6458 971.619 382.204C263.619 728.761 0.000448423 275.586 0.000448423 275.586L0.000871648 1856C0.000871648 1856 147.871 1387.27 936.202 1613.74C1724.53 1840.2 1918 1706.99 1918 1706.99Z" fill="url(#paint1_linear_606_10)"/>
<path d="M1918 1841.03L1918 487.48C1918 487.48 1644.41 235.293 940.476 503.153C236.544 771.012 0 23.0001 0 23.0001L0.000848002 1476.28C0.000848002 1476.28 188.096 1185.63 880.628 1568.89C1573.16 1952.16 1918 1841.03 1918 1841.03Z" fill="url(#paint2_linear_606_10)" fill-opacity="0.3"/>
<defs>
<linearGradient id="paint0_linear_606_10" x1="739.002" y1="1166" x2="108.638" y2="561.394" gradientUnits="userSpaceOnUse">
<stop offset="0.0384615" stop-color="#9399F0" stop-opacity="0.3"/>
<stop offset="1" stop-color="#563457" stop-opacity="0.3"/>
</linearGradient>
<linearGradient id="paint1_linear_606_10" x1="959.001" y1="-97.5354" x2="959.001" y2="1884.92" gradientUnits="userSpaceOnUse">
<stop stop-color="#9399F0"/>
<stop offset="1" stop-color="#563457"/>
</linearGradient>
<linearGradient id="paint2_linear_606_10" x1="1549.5" y1="338.5" x2="164.15" y2="995.072" gradientUnits="userSpaceOnUse">
<stop offset="0.384615" stop-color="#2C192C"/>
<stop offset="1" stop-color="#9399F0" stop-opacity="0.4"/>
</linearGradient>
</defs>
</svg>
