<svg width="380" height="885" viewBox="0 0 380 885" fill="none" xmlns="http://www.w3.org/2000/svg">
<path d="M380 867.239L380 24.1108C380 24.1108 315 -14.8891 192.5 69.7502C69.9999 154.39 -0.00012207 115.793 -0.00012207 115.793L0 784.421C0 784.421 89.9999 755.739 189.5 838.641C289 921.542 380 867.239 380 867.239Z" fill="url(#paint0_linear_603_38)"/>
<path d="M380 801.239L380 61.8601C380 61.8601 356 0.0808945 185.5 76.1107C14.9999 152.14 -0.000152588 61.8601 -0.000152588 61.8601L0 860.239C0 860.239 24.4999 804.64 176.5 844.239C328.5 883.837 380 801.239 380 801.239Z" fill="url(#paint1_linear_603_38)" fill-opacity="0.77"/>
<path d="M380 835.412L380 11.6401C380 11.6401 327 -36.86 171.5 64.14C15.9998 165.14 -0.000305176 21.0206 -0.000305176 21.0206L-0.00012207 840.134C-0.00012207 840.134 37.4999 779.704 196.5 835.412C355.5 891.121 380 835.412 380 835.412Z" fill="url(#paint2_linear_603_38)" fill-opacity="0.4"/>
<defs>
<linearGradient id="paint0_linear_603_38" x1="190" y1="-99.8626" x2="190" y2="903.94" gradientUnits="userSpaceOnUse">
<stop stop-color="#9399F0"/>
<stop offset="1" stop-color="#563457"/>
</linearGradient>
<linearGradient id="paint1_linear_603_38" x1="384.5" y1="-90.4801" x2="-187.649" y2="32.5126" gradientUnits="userSpaceOnUse">
<stop stop-color="#563457" stop-opacity="0.8"/>
<stop offset="1" stop-color="#9399F0" stop-opacity="0.4"/>
</linearGradient>
<linearGradient id="paint2_linear_603_38" x1="384.5" y1="-100.681" x2="-189.987" y2="16.9882" gradientUnits="userSpaceOnUse">
<stop offset="0.120192" stop-color="#9399F0" stop-opacity="0.4"/>
<stop offset="0.75" stop-color="#6D3441" stop-opacity="0.8"/>
</linearGradient>
</defs>
</svg>
